# xmcd
#
# Track frame offsets:
#	150
#	15122
#	37665
#	59242
#
# Disc length: 1066 seconds
#
# Revision: 0
# Processed by: cddbd v1.4PL0 Copyright (c) Steve Scherf et al.
# Submitted via: dBpowerAMP V4.0
#
DISCID=24042804
DTITLE=Shawn Colvin - Every Little Thing He Does Is Magic
DYEAR=1994
DGENRE=Country
TTITLE0=Every Little Thing He Does Is Magic
TTITLE1=Steady On
TTITLE2=Round Of Blues
TTITLE3=I Don't Know Why
EXTD=CD single
EXTT0=
EXTT1=
EXTT2=
EXTT3=
PLAYORDER=
